<?xml version="1.0" standalone="no"?>
<!DOCTYPE svg PUBLIC "-//W3C//DTD SVG 20010904//EN"
 "http://www.w3.org/TR/2001/REC-SVG-20010904/DTD/svg10.dtd">
<svg version="1.0" xmlns="http://www.w3.org/2000/svg"
 width="842.000000pt" height="595.000000pt" viewBox="0 0 842.000000 595.000000"
 preserveAspectRatio="xMidYMid meet">
<metadata>
Created by potrace 1.16, written by Peter Selinger 2001-2019
</metadata>
<g transform="translate(0.000000,595.000000) scale(0.100000,-0.100000)"
fill="#000000" stroke="none">
<path d="M0 2975 l0 -2975 4200 0 4200 0 0 2975 0 2975 -4200 0 -4200 0 0
-2975z m4260 1356 c72 -13 208 -51 238 -67 15 -7 32 -14 38 -14 21 0 146 -70
204 -115 122 -94 205 -219 235 -352 8 -38 19 -85 24 -106 7 -30 6 -41 -9 -60
-18 -21 -25 -22 -234 -25 -136 -2 -222 1 -235 7 -11 7 -28 38 -42 78 -25 77
-79 142 -143 173 -167 81 -448 78 -592 -6 -117 -68 -138 -234 -40 -309 47 -36
232 -97 351 -116 33 -5 77 -16 98 -24 20 -8 53 -15 72 -15 18 0 46 -5 62 -11
15 -6 53 -15 83 -20 83 -14 269 -71 345 -105 17 -7 41 -18 55 -23 38 -13 145
-97 185 -144 58 -68 91 -145 110 -260 16 -97 16 -111 1 -203 -21 -130 -75
-238 -161 -327 -99 -102 -172 -149 -322 -206 -151 -57 -214 -66 -478 -66 -252
0 -327 9 -450 56 -28 10 -55 19 -60 19 -24 0 -202 99 -250 140 -56 47 -155
163 -155 182 0 5 -9 21 -20 35 -11 14 -20 36 -20 48 0 13 -9 42 -20 66 -22 50
-27 158 -8 177 17 17 436 17 473 0 17 -8 28 -24 35 -52 31 -126 105 -189 267
-230 226 -57 536 -8 622 97 36 43 54 120 40 171 -13 49 -77 112 -123 122 -17
3 -42 12 -56 19 -26 13 -130 41 -215 58 -27 5 -79 18 -114 28 -35 11 -82 19
-103 19 -21 0 -55 7 -75 15 -19 8 -47 15 -62 15 -62 0 -313 91 -413 150 -91
54 -186 169 -208 251 -7 24 -17 50 -23 58 -8 9 -12 68 -12 175 0 137 3 165 18
186 9 13 17 34 17 45 0 11 7 31 15 45 8 14 21 39 29 55 36 76 194 220 286 262
115 52 254 94 355 106 59 8 341 6 385 -2z m-2872 -54 c9 -6 12 -103 12 -422 0
-230 4 -416 9 -419 5 -3 82 69 172 160 215 217 461 464 591 592 l104 103 308
1 c261 0 310 -2 323 -15 15 -15 6 -26 -178 -197 -14 -14 -102 -97 -195 -186
-93 -88 -193 -183 -223 -210 -30 -27 -73 -67 -96 -89 -23 -22 -85 -80 -138
-129 -53 -50 -97 -94 -97 -99 0 -5 20 -33 45 -61 25 -29 45 -56 45 -59 0 -3
10 -17 23 -30 12 -13 30 -35 40 -48 9 -13 60 -78 112 -144 53 -66 102 -129
111 -140 8 -11 54 -70 102 -131 48 -61 98 -126 112 -144 14 -18 53 -69 88
-114 34 -45 93 -121 130 -169 37 -48 95 -123 129 -165 93 -116 102 -112 -277
-112 l-307 0 -54 70 c-30 39 -73 95 -96 125 -24 29 -43 59 -43 65 0 6 -7 13
-15 16 -8 3 -23 20 -34 37 -34 53 -45 69 -64 91 -41 47 -147 185 -147 192 0 5
-58 80 -113 144 -6 8 -16 22 -22 31 -20 33 -125 168 -136 175 -6 4 -53 -35
-110 -92 l-99 -99 0 -359 c0 -320 -2 -361 -17 -378 -15 -16 -36 -18 -253 -18
-188 0 -240 3 -249 14 -8 10 -10 310 -9 1117 l3 1104 205 5 c203 5 283 1 308
-13z m5302 2 c115 -27 147 -36 170 -46 14 -6 45 -19 70 -29 61 -26 185 -119
243 -184 52 -58 117 -151 117 -167 0 -5 8 -18 19 -27 10 -9 22 -31 25 -48 3
-18 13 -39 20 -47 8 -9 19 -38 24 -66 6 -27 17 -68 26 -90 8 -22 15 -60 15
-85 1 -25 8 -94 18 -153 15 -94 15 -120 4 -205 -7 -53 -16 -138 -21 -188 -4
-50 -14 -104 -23 -120 -8 -16 -17 -48 -21 -71 -3 -24 -15 -58 -26 -75 -11 -18
-20 -43 -20 -54 0 -12 -7 -27 -15 -34 -8 -6 -17 -22 -21 -33 -3 -12 -32 -60
-62 -107 -86 -130 -219 -252 -329 -301 -26 -12 -57 -26 -68 -32 -10 -5 -42
-16 -70 -23 -27 -7 -75 -20 -105 -28 -46 -14 -140 -16 -635 -16 -439 0 -584 3
-593 12 -9 9 -12 271 -12 1115 0 1083 0 1104 19 1111 32 12 1200 3 1251 -9z
m-6155 -2705 c13 -8 32 -14 42 -12 12 2 17 -2 15 -14 -3 -19 13 -24 23 -8 10
17 61 11 86 -9 20 -16 22 -23 13 -47 -9 -27 -13 -29 -67 -29 -31 0 -57 -4 -56
-10 0 -5 14 -9 30 -7 25 3 38 -4 69 -37 63 -66 83 -54 67 37 -6 34 -6 57 0 63
5 5 40 11 77 12 54 2 70 -1 80 -15 17 -23 22 -22 53 2 35 27 67 25 104 -8 34
-30 47 -90 35 -154 -13 -72 -105 -98 -166 -47 -20 17 -24 30 -26 80 -1 65 -11
83 -40 77 -27 -5 -32 -106 -8 -142 16 -25 15 -26 -11 -36 -38 -14 -53 -13 -72
10 -13 15 -20 17 -31 7 -19 -16 -114 -21 -254 -15 -62 3 -77 11 -60 31 20 24
34 108 21 124 -10 11 -8 22 10 53 25 45 21 60 -14 60 -27 0 -39 14 -31 35 7
20 80 19 111 -1z m2710 1 c42 -17 56 -43 31 -57 -13 -8 -15 -13 -5 -24 6 -8
19 -14 29 -14 9 0 35 -12 56 -26 36 -25 39 -25 49 -8 19 33 69 74 91 74 13 0
36 -11 52 -25 17 -14 34 -25 38 -25 5 0 17 17 26 38 27 57 54 82 91 82 18 0
39 -4 47 -10 12 -8 12 -11 -3 -27 -12 -14 -15 -29 -11 -55 4 -21 2 -38 -5 -42
-16 -10 -14 -100 3 -141 14 -33 14 -36 -5 -46 -29 -15 -88 6 -94 34 -3 12 -6
51 -7 86 -2 41 -8 66 -15 69 -10 3 -13 -16 -13 -70 0 -71 -1 -75 -30 -96 -46
-34 -83 -38 -123 -13 -19 12 -38 33 -41 46 -9 36 -28 31 -83 -21 l-48 -46 -69
6 c-38 3 -74 10 -80 16 -13 13 -56 13 -56 0 0 -16 -40 -12 -46 5 -11 27 5 60
38 79 l33 19 -29 8 c-26 7 -45 24 -46 40 0 3 9 16 20 29 11 13 20 26 20 29 0
4 20 28 43 54 49 52 79 59 142 32z m2688 -28 c18 -8 38 -26 46 -40 20 -37 40
-41 70 -13 32 30 77 25 93 -10 15 -33 23 -30 34 13 12 48 37 55 58 15 19 -37
36 -44 76 -29 46 17 60 -6 60 -99 0 -69 -1 -73 -32 -99 -26 -22 -39 -26 -67
-21 -62 10 -86 35 -89 97 -4 64 -12 75 -43 58 -46 -23 -52 -60 -17 -104 21
-27 21 -28 3 -41 -32 -23 -74 -17 -105 15 l-27 30 -43 -21 c-41 -21 -45 -21
-101 -6 -57 15 -104 14 -115 -3 -3 -5 -16 -9 -30 -9 -20 0 -24 4 -20 18 4 12
-1 26 -14 37 -23 21 -26 51 -6 62 20 11 70 87 60 90 -5 2 -24 12 -42 23 -28
17 -32 23 -22 35 17 20 226 21 273 2z m715 1 c5 -7 13 -50 17 -95 4 -46 12
-83 17 -83 7 0 8 14 5 35 -5 31 -1 40 33 77 35 36 43 40 72 34 54 -11 85 -49
90 -112 3 -30 8 -57 12 -61 22 -23 36 80 15 118 -16 31 6 50 55 48 23 -1 51 2
63 6 16 5 25 1 38 -19 21 -31 36 -33 53 -6 16 26 68 27 81 3 13 -25 1 -210
-14 -223 -17 -14 -43 -2 -59 27 l-13 25 -35 -31 c-20 -17 -41 -31 -48 -31 -6
0 -23 -9 -37 -20 -14 -11 -34 -20 -43 -20 -24 0 -43 26 -37 49 12 47 -25 58
-68 20 -32 -28 -69 -33 -106 -14 -30 16 -34 16 -61 0 -60 -35 -121 8 -118 82
1 21 2 44 1 51 -1 13 -29 16 -55 6 -21 -8 -21 -72 1 -103 15 -23 15 -25 -2
-37 -22 -16 -44 -18 -79 -4 -25 9 -26 12 -26 100 0 88 1 92 30 120 17 17 34
30 38 30 4 0 26 -11 49 -24 47 -27 53 -25 53 16 0 20 7 31 23 38 31 12 43 12
55 -2z m-5330 -35 c21 10 27 8 44 -16 l20 -27 40 24 41 24 38 -20 c34 -17 40
-18 61 -5 52 33 140 32 153 -1 4 -11 -4 -25 -26 -43 -30 -24 -31 -28 -27 -80
3 -30 9 -62 13 -71 9 -22 -28 -39 -67 -31 -33 6 -48 40 -48 109 0 51 -2 55
-20 50 -11 -3 -29 -9 -40 -12 -26 -7 -28 -69 -3 -103 15 -23 15 -25 -3 -38
-13 -10 -31 -12 -59 -7 -39 7 -60 7 -100 2 -16 -2 -20 3 -20 23 0 15 -7 35
-16 45 -28 33 -30 42 -10 61 14 13 17 24 10 41 -16 42 -81 20 -74 -26 2 -15 7
-53 10 -84 5 -55 4 -58 -20 -64 -16 -4 -34 0 -49 9 -22 15 -24 24 -28 114 -3
54 -3 104 0 112 3 7 18 19 35 26 25 10 37 9 75 -5 36 -14 51 -15 70 -7z m2651
-8 c34 -37 46 -42 56 -25 10 16 47 12 61 -7 12 -17 14 -17 34 5 12 12 27 19
33 16 26 -15 50 -40 58 -61 10 -27 31 -30 49 -8 10 13 9 19 -6 36 -27 30 -8
53 49 57 36 2 51 -2 66 -17 19 -19 21 -33 21 -126 0 -58 -2 -105 -4 -105 -2 0
-11 -3 -19 -6 -8 -3 -22 2 -31 12 -13 12 -20 14 -29 5 -17 -17 -78 -13 -99 6
-17 15 -19 15 -39 -2 -15 -15 -39 -20 -103 -22 -73 -2 -88 1 -117 20 -33 22
-34 25 -37 95 -3 69 -4 73 -25 70 -20 -3 -22 -8 -19 -63 3 -36 10 -67 20 -78
18 -20 9 -33 -29 -42 -19 -5 -34 0 -57 20 -31 26 -32 28 -32 114 0 80 2 89 25
111 20 18 31 22 62 17 21 -4 45 -2 53 3 22 14 22 14 59 -25z m3972 15 c26 -15
24 -45 -6 -67 -23 -17 -24 -20 -14 -78 18 -110 25 -100 -71 -102 -63 -1 -89 2
-101 13 -14 13 -18 13 -29 -1 -7 -8 -27 -15 -46 -15 -43 0 -54 21 -54 99 0 66
-4 70 -50 46 -35 -18 -39 -52 -14 -100 14 -27 14 -30 -2 -42 -21 -16 -44 -16
-78 -3 -25 9 -26 12 -26 98 0 88 0 88 35 122 l35 34 35 -17 c20 -9 38 -24 41
-32 9 -22 21 -18 28 10 6 24 8 24 107 22 70 -1 104 2 111 11 13 15 72 16 99 2z
m-3371 -17 c24 -14 34 -15 55 -5 38 18 66 15 92 -10 30 -28 29 -56 -2 -68 -40
-15 -50 -55 -23 -97 21 -35 21 -36 3 -49 -24 -18 -66 -18 -89 -1 -14 10 -20
33 -25 83 -4 38 -10 75 -14 82 -11 17 -34 15 -41 -4 -10 -26 -7 -104 5 -126
10 -18 8 -24 -7 -35 -19 -14 -60 -10 -79 8 -10 10 -24 180 -17 211 3 12 17 18
46 21 22 2 47 4 54 5 8 1 27 -6 42 -15z m2712 -3 c16 -26 26 -25 48 2 18 22
19 22 53 6 l36 -17 3 -103 c2 -67 -1 -108 -8 -117 -18 -20 -51 -4 -64 32 l-12
32 -15 -32 c-16 -32 -58 -50 -79 -32 -15 12 -25 220 -12 237 15 18 36 15 50
-8z"/>
<path d="M5930 3865 c-4 -125 1 -1379 5 -1385 7 -12 418 -12 490 -1 85 14 177
42 215 66 51 32 132 126 163 188 48 96 75 198 87 325 28 283 -27 574 -129 685
-35 38 -133 97 -162 97 -13 0 -46 7 -73 15 -38 12 -109 15 -323 15 -150 0
-273 -2 -273 -5z"/>
</g>
</svg>
